<?xml version="1.0" ?><!DOCTYPE svg  PUBLIC '-//W3C//DTD SVG 1.1//EN'  'http://www.w3.org/Graphics/SVG/1.1/DTD/svg11.dtd'><svg enable-background="new 0 0 128 128" height="128px" id="Layer_1" version="1.1" viewBox="0 0 128 128" width="128px" xml:space="preserve" xmlns="http://www.w3.org/2000/svg" xmlns:xlink="http://www.w3.org/1999/xlink"><g id="bookmark"><path d="M97.5,8h-66c-4.418,0-8.5,3.082-8.5,7.5v86c0,4.418,4.082,8.5,8.5,8.5h66c4.418,0,7.5-4.082,7.5-8.5v-86   C105,11.082,101.918,8,97.5,8z" fill="#253B4B"/><path d="M94,11H33.645C29.245,11,26,14.245,26,18.645V107c0,4.4,3.6,8,8,8h60c4.4,0,8-3.6,8-8V19   C102,14.6,98.4,11,94,11z" fill="#EDEDED"/><path d="M94,13H33.645C29.245,13,26,16.245,26,20.645V109c0,4.4,3.6,8,8,8h60c4.4,0,8-3.6,8-8V21   C102,16.6,98.4,13,94,13z" fill="#989898"/><path d="M94,15H33.645C29.245,15,26,18.245,26,22.645V111c0,4.4,3.6,8,8,8h60c4.4,0,8-3.6,8-8V23   C102,18.6,98.4,15,94,15z" fill="#EDEDED"/><path d="M108,25.5c0-4.142-3.358-7.5-7.5-7.5h-70c-4.142,0-7.5,3.358-7.5,7.5v87c0,4.142,3.358,8.5,7.5,8.5h70   c4.142,0,7.5-4.358,7.5-8.5V25.5z" fill="#00A388"/><path d="M27.04,9.121C24.677,10.396,23,12.671,23,15.5v97c0,4.418,4.082,8.5,8.5,8.5H40V18c0,0-4,0-10,0   C25.247,18,24.263,11.729,27.04,9.121z" fill="#253B4B"/><polygon opacity="0.1" points="97,70.865 85.275,61.467 74,70.865 70,18 93,18  "/><polygon fill="#DD5345" points="93,70.865 81.275,61.467 70,70.865 70,18 93,18  "/><polygon fill="#BA2C25" points="87,13 64,13 70,18 93,18  "/><path d="M93,90H56c-1.104,0-2-0.896-2-2s0.896-2,2-2h37c1.104,0,2,0.896,2,2S94.104,90,93,90z" fill="#EDEDED"/><path d="M93,103H56c-1.104,0-2-0.896-2-2s0.896-2,2-2h37c1.104,0,2,0.896,2,2S94.104,103,93,103z" fill="#EDEDED"/></g></svg>